<mxfile host="app.diagrams.net" agent="Mozilla/5.0 (Windows NT 10.0; Win64; x64) AppleWebKit/537.36 (KHTML, like Gecko) Chrome/137.0.0.0 Safari/537.36" version="27.1.6">
  <diagram name="第 1 页" id="mlMKIKonqG3uTM8-hN5O">
    <mxGraphModel dx="977" dy="492" grid="1" gridSize="10" guides="1" tooltips="1" connect="1" arrows="1" fold="1" page="1" pageScale="1" pageWidth="827" pageHeight="1169" math="0" shadow="0">
      <root>
        <mxCell id="0" />
        <mxCell id="1" parent="0" />
        <mxCell id="BSQEsAMGl3usn15K0dEv-12" value="" style="rounded=1;whiteSpace=wrap;html=1;" parent="1" vertex="1">
          <mxGeometry x="460" y="340" width="180" height="200" as="geometry" />
        </mxCell>
        <mxCell id="BSQEsAMGl3usn15K0dEv-1" value="" style="rounded=1;whiteSpace=wrap;html=1;" parent="1" vertex="1">
          <mxGeometry x="30" y="190" width="560" height="100" as="geometry" />
        </mxCell>
        <mxCell id="BSQEsAMGl3usn15K0dEv-2" value="&lt;font style=&quot;font-size: 24px;&quot;&gt;APP-Agent&lt;/font&gt;" style="text;html=1;align=center;verticalAlign=middle;whiteSpace=wrap;rounded=0;" parent="1" vertex="1">
          <mxGeometry x="240" y="190" width="160" height="30" as="geometry" />
        </mxCell>
        <mxCell id="BSQEsAMGl3usn15K0dEv-24" style="edgeStyle=orthogonalEdgeStyle;rounded=0;orthogonalLoop=1;jettySize=auto;html=1;entryX=0.5;entryY=1;entryDx=0;entryDy=0;" parent="1" source="BSQEsAMGl3usn15K0dEv-4" target="BSQEsAMGl3usn15K0dEv-23" edge="1">
          <mxGeometry relative="1" as="geometry" />
        </mxCell>
        <mxCell id="BSQEsAMGl3usn15K0dEv-36" style="edgeStyle=orthogonalEdgeStyle;rounded=0;orthogonalLoop=1;jettySize=auto;html=1;entryX=0.5;entryY=0;entryDx=0;entryDy=0;" parent="1" source="BSQEsAMGl3usn15K0dEv-4" target="BSQEsAMGl3usn15K0dEv-10" edge="1">
          <mxGeometry relative="1" as="geometry">
            <Array as="points">
              <mxPoint x="125" y="320" />
              <mxPoint x="250" y="320" />
            </Array>
          </mxGeometry>
        </mxCell>
        <mxCell id="BSQEsAMGl3usn15K0dEv-40" style="edgeStyle=orthogonalEdgeStyle;rounded=0;orthogonalLoop=1;jettySize=auto;html=1;" parent="1" edge="1" target="D3r7Wt1z7NvDzZLaiaD2-3">
          <mxGeometry relative="1" as="geometry">
            <mxPoint x="135" y="280" as="sourcePoint" />
            <mxPoint x="560" y="340" as="targetPoint" />
            <Array as="points">
              <mxPoint x="120" y="280" />
              <mxPoint x="120" y="320" />
              <mxPoint x="505" y="320" />
            </Array>
          </mxGeometry>
        </mxCell>
        <mxCell id="D3r7Wt1z7NvDzZLaiaD2-5" style="edgeStyle=orthogonalEdgeStyle;rounded=0;orthogonalLoop=1;jettySize=auto;html=1;" edge="1" parent="1" source="BSQEsAMGl3usn15K0dEv-4" target="BSQEsAMGl3usn15K0dEv-42">
          <mxGeometry relative="1" as="geometry">
            <Array as="points">
              <mxPoint x="125" y="310" />
              <mxPoint x="590" y="310" />
            </Array>
          </mxGeometry>
        </mxCell>
        <mxCell id="D3r7Wt1z7NvDzZLaiaD2-12" style="edgeStyle=orthogonalEdgeStyle;rounded=0;orthogonalLoop=1;jettySize=auto;html=1;entryX=0;entryY=0.5;entryDx=0;entryDy=0;" edge="1" parent="1" source="BSQEsAMGl3usn15K0dEv-4" target="BSQEsAMGl3usn15K0dEv-6">
          <mxGeometry relative="1" as="geometry" />
        </mxCell>
        <mxCell id="D3r7Wt1z7NvDzZLaiaD2-13" style="edgeStyle=orthogonalEdgeStyle;rounded=0;orthogonalLoop=1;jettySize=auto;html=1;" edge="1" parent="1" source="BSQEsAMGl3usn15K0dEv-4" target="BSQEsAMGl3usn15K0dEv-5">
          <mxGeometry relative="1" as="geometry">
            <Array as="points">
              <mxPoint x="125" y="230" />
              <mxPoint x="400" y="230" />
            </Array>
          </mxGeometry>
        </mxCell>
        <mxCell id="BSQEsAMGl3usn15K0dEv-4" value="&lt;font style=&quot;color: rgb(255, 0, 0);&quot;&gt;agent&lt;/font&gt;" style="rounded=1;whiteSpace=wrap;html=1;fillColor=#eeeeee;strokeColor=#36393d;" parent="1" vertex="1">
          <mxGeometry x="50" y="240" width="150" height="40" as="geometry" />
        </mxCell>
        <mxCell id="BSQEsAMGl3usn15K0dEv-5" value="&lt;font style=&quot;color: rgb(255, 0, 0);&quot;&gt;name&lt;/font&gt;" style="rounded=1;whiteSpace=wrap;html=1;fillColor=#eeeeee;strokeColor=#36393d;" parent="1" vertex="1">
          <mxGeometry x="350" y="240" width="100" height="40" as="geometry" />
        </mxCell>
        <mxCell id="BSQEsAMGl3usn15K0dEv-6" value="&lt;font style=&quot;color: rgb(255, 0, 0);&quot;&gt;agent_id&lt;/font&gt;" style="rounded=1;whiteSpace=wrap;html=1;fillColor=#eeeeee;strokeColor=#36393d;" parent="1" vertex="1">
          <mxGeometry x="230" y="240" width="100" height="40" as="geometry" />
        </mxCell>
        <mxCell id="BSQEsAMGl3usn15K0dEv-7" value="&lt;font style=&quot;color: rgb(255, 0, 0);&quot;&gt;instructions&lt;/font&gt;" style="rounded=1;whiteSpace=wrap;html=1;fillColor=#eeeeee;strokeColor=#36393d;" parent="1" vertex="1">
          <mxGeometry x="470" y="240" width="100" height="40" as="geometry" />
        </mxCell>
        <mxCell id="BSQEsAMGl3usn15K0dEv-8" value="" style="rounded=1;whiteSpace=wrap;html=1;" parent="1" vertex="1">
          <mxGeometry x="40" y="340" width="120" height="200" as="geometry" />
        </mxCell>
        <mxCell id="BSQEsAMGl3usn15K0dEv-9" value="" style="rounded=1;whiteSpace=wrap;html=1;" parent="1" vertex="1">
          <mxGeometry x="330" y="340" width="110" height="200" as="geometry" />
        </mxCell>
        <mxCell id="BSQEsAMGl3usn15K0dEv-10" value="" style="rounded=1;whiteSpace=wrap;html=1;" parent="1" vertex="1">
          <mxGeometry x="190" y="340" width="120" height="200" as="geometry" />
        </mxCell>
        <mxCell id="BSQEsAMGl3usn15K0dEv-17" style="edgeStyle=orthogonalEdgeStyle;rounded=0;orthogonalLoop=1;jettySize=auto;html=1;" parent="1" source="BSQEsAMGl3usn15K0dEv-11" target="BSQEsAMGl3usn15K0dEv-13" edge="1">
          <mxGeometry relative="1" as="geometry" />
        </mxCell>
        <mxCell id="BSQEsAMGl3usn15K0dEv-11" value="ModelsProvider" style="rounded=1;whiteSpace=wrap;html=1;" parent="1" vertex="1">
          <mxGeometry x="45" y="360" width="100" height="40" as="geometry" />
        </mxCell>
        <mxCell id="BSQEsAMGl3usn15K0dEv-15" style="edgeStyle=orthogonalEdgeStyle;rounded=0;orthogonalLoop=1;jettySize=auto;html=1;entryX=0.5;entryY=0;entryDx=0;entryDy=0;" parent="1" source="BSQEsAMGl3usn15K0dEv-13" target="BSQEsAMGl3usn15K0dEv-14" edge="1">
          <mxGeometry relative="1" as="geometry" />
        </mxCell>
        <mxCell id="BSQEsAMGl3usn15K0dEv-13" value="model：Model" style="rounded=1;whiteSpace=wrap;html=1;" parent="1" vertex="1">
          <mxGeometry x="45" y="420" width="100" height="40" as="geometry" />
        </mxCell>
        <mxCell id="BSQEsAMGl3usn15K0dEv-14" value="ModelResponse" style="rounded=1;whiteSpace=wrap;html=1;" parent="1" vertex="1">
          <mxGeometry x="42.5" y="490" width="105" height="40" as="geometry" />
        </mxCell>
        <mxCell id="BSQEsAMGl3usn15K0dEv-16" style="edgeStyle=orthogonalEdgeStyle;rounded=0;orthogonalLoop=1;jettySize=auto;html=1;entryX=0;entryY=0.5;entryDx=0;entryDy=0;" parent="1" target="BSQEsAMGl3usn15K0dEv-13" edge="1">
          <mxGeometry relative="1" as="geometry">
            <mxPoint x="125" y="280" as="sourcePoint" />
            <Array as="points">
              <mxPoint x="125" y="320" />
              <mxPoint x="10" y="320" />
              <mxPoint x="10" y="440" />
            </Array>
          </mxGeometry>
        </mxCell>
        <mxCell id="BSQEsAMGl3usn15K0dEv-18" value="第三方API模型集成组件" style="text;html=1;align=center;verticalAlign=middle;whiteSpace=wrap;rounded=0;" parent="1" vertex="1">
          <mxGeometry x="47.5" y="550" width="100" height="30" as="geometry" />
        </mxCell>
        <mxCell id="BSQEsAMGl3usn15K0dEv-20" value="工具库集成" style="text;html=1;align=center;verticalAlign=middle;whiteSpace=wrap;rounded=0;" parent="1" vertex="1">
          <mxGeometry x="200" y="550" width="100" height="30" as="geometry" />
        </mxCell>
        <mxCell id="BSQEsAMGl3usn15K0dEv-21" value="上下文管理和实践状态管理" style="text;html=1;align=center;verticalAlign=middle;whiteSpace=wrap;rounded=0;" parent="1" vertex="1">
          <mxGeometry x="335" y="550" width="100" height="30" as="geometry" />
        </mxCell>
        <mxCell id="BSQEsAMGl3usn15K0dEv-22" value="知识库和数据资产" style="text;html=1;align=center;verticalAlign=middle;whiteSpace=wrap;rounded=0;" parent="1" vertex="1">
          <mxGeometry x="500" y="550" width="100" height="30" as="geometry" />
        </mxCell>
        <mxCell id="BSQEsAMGl3usn15K0dEv-23" value="" style="rounded=1;whiteSpace=wrap;html=1;" parent="1" vertex="1">
          <mxGeometry x="40" y="10" width="170" height="160" as="geometry" />
        </mxCell>
        <mxCell id="BSQEsAMGl3usn15K0dEv-26" value="RunResponse" style="rounded=1;whiteSpace=wrap;html=1;" parent="1" vertex="1">
          <mxGeometry x="70" y="120" width="110" height="40" as="geometry" />
        </mxCell>
        <mxCell id="D3r7Wt1z7NvDzZLaiaD2-17" style="edgeStyle=orthogonalEdgeStyle;rounded=0;orthogonalLoop=1;jettySize=auto;html=1;entryX=0;entryY=0.5;entryDx=0;entryDy=0;" edge="1" parent="1" source="BSQEsAMGl3usn15K0dEv-27" target="D3r7Wt1z7NvDzZLaiaD2-16">
          <mxGeometry relative="1" as="geometry" />
        </mxCell>
        <mxCell id="BSQEsAMGl3usn15K0dEv-27" value="RunResponseEvent" style="rounded=1;whiteSpace=wrap;html=1;" parent="1" vertex="1">
          <mxGeometry x="70" y="70" width="110" height="40" as="geometry" />
        </mxCell>
        <mxCell id="BSQEsAMGl3usn15K0dEv-28" value="Stream" style="rounded=1;whiteSpace=wrap;html=1;" parent="1" vertex="1">
          <mxGeometry x="70" y="20" width="110" height="40" as="geometry" />
        </mxCell>
        <mxCell id="D3r7Wt1z7NvDzZLaiaD2-10" style="edgeStyle=orthogonalEdgeStyle;rounded=0;orthogonalLoop=1;jettySize=auto;html=1;entryX=0.5;entryY=0;entryDx=0;entryDy=0;" edge="1" parent="1" source="BSQEsAMGl3usn15K0dEv-29" target="D3r7Wt1z7NvDzZLaiaD2-8">
          <mxGeometry relative="1" as="geometry" />
        </mxCell>
        <mxCell id="BSQEsAMGl3usn15K0dEv-29" value="AgentMemory" style="rounded=1;whiteSpace=wrap;html=1;" parent="1" vertex="1">
          <mxGeometry x="335" y="360" width="85" height="40" as="geometry" />
        </mxCell>
        <mxCell id="BSQEsAMGl3usn15K0dEv-30" value="Agent&lt;div&gt;Knowledage&lt;/div&gt;" style="rounded=1;whiteSpace=wrap;html=1;" parent="1" vertex="1">
          <mxGeometry x="470" y="439" width="80" height="40" as="geometry" />
        </mxCell>
        <mxCell id="BSQEsAMGl3usn15K0dEv-35" style="edgeStyle=orthogonalEdgeStyle;rounded=0;orthogonalLoop=1;jettySize=auto;html=1;exitX=0.5;exitY=1;exitDx=0;exitDy=0;entryX=0.5;entryY=0;entryDx=0;entryDy=0;" parent="1" source="BSQEsAMGl3usn15K0dEv-31" target="BSQEsAMGl3usn15K0dEv-32" edge="1">
          <mxGeometry relative="1" as="geometry" />
        </mxCell>
        <mxCell id="BSQEsAMGl3usn15K0dEv-31" value="ToolKits" style="rounded=1;whiteSpace=wrap;html=1;" parent="1" vertex="1">
          <mxGeometry x="210" y="370" width="85" height="40" as="geometry" />
        </mxCell>
        <mxCell id="BSQEsAMGl3usn15K0dEv-32" value="ToolExecution" style="rounded=1;whiteSpace=wrap;html=1;" parent="1" vertex="1">
          <mxGeometry x="210" y="460" width="85" height="40" as="geometry" />
        </mxCell>
        <mxCell id="BSQEsAMGl3usn15K0dEv-37" value="&lt;font style=&quot;color: rgb(255, 153, 51);&quot;&gt;tools&lt;/font&gt;" style="text;html=1;align=center;verticalAlign=middle;whiteSpace=wrap;rounded=0;" parent="1" vertex="1">
          <mxGeometry x="170" y="320" width="50" height="20" as="geometry" />
        </mxCell>
        <mxCell id="BSQEsAMGl3usn15K0dEv-38" value="&lt;font style=&quot;color: rgb(255, 0, 0);&quot;&gt;model&lt;/font&gt;" style="text;html=1;align=center;verticalAlign=middle;whiteSpace=wrap;rounded=0;" parent="1" vertex="1">
          <mxGeometry x="45" y="300" width="50" height="30" as="geometry" />
        </mxCell>
        <mxCell id="BSQEsAMGl3usn15K0dEv-39" style="edgeStyle=orthogonalEdgeStyle;rounded=0;orthogonalLoop=1;jettySize=auto;html=1;entryX=0.599;entryY=0.004;entryDx=0;entryDy=0;entryPerimeter=0;" parent="1" source="BSQEsAMGl3usn15K0dEv-4" target="BSQEsAMGl3usn15K0dEv-9" edge="1">
          <mxGeometry relative="1" as="geometry">
            <Array as="points">
              <mxPoint x="120" y="320" />
              <mxPoint x="396" y="320" />
            </Array>
          </mxGeometry>
        </mxCell>
        <mxCell id="BSQEsAMGl3usn15K0dEv-41" value="AgentSession" style="rounded=1;whiteSpace=wrap;html=1;" parent="1" vertex="1">
          <mxGeometry x="550" y="479" width="80" height="40" as="geometry" />
        </mxCell>
        <mxCell id="D3r7Wt1z7NvDzZLaiaD2-2" style="edgeStyle=orthogonalEdgeStyle;rounded=0;orthogonalLoop=1;jettySize=auto;html=1;" edge="1" parent="1" source="BSQEsAMGl3usn15K0dEv-42" target="BSQEsAMGl3usn15K0dEv-41">
          <mxGeometry relative="1" as="geometry" />
        </mxCell>
        <mxCell id="BSQEsAMGl3usn15K0dEv-42" value="storage" style="rounded=1;whiteSpace=wrap;html=1;" parent="1" vertex="1">
          <mxGeometry x="560" y="390" width="60" height="40" as="geometry" />
        </mxCell>
        <mxCell id="D3r7Wt1z7NvDzZLaiaD2-3" value="knowledge" style="rounded=1;whiteSpace=wrap;html=1;" vertex="1" parent="1">
          <mxGeometry x="470" y="370" width="70" height="40" as="geometry" />
        </mxCell>
        <mxCell id="D3r7Wt1z7NvDzZLaiaD2-4" style="edgeStyle=orthogonalEdgeStyle;rounded=0;orthogonalLoop=1;jettySize=auto;html=1;entryX=0.433;entryY=0.056;entryDx=0;entryDy=0;entryPerimeter=0;" edge="1" parent="1" source="D3r7Wt1z7NvDzZLaiaD2-3" target="BSQEsAMGl3usn15K0dEv-30">
          <mxGeometry relative="1" as="geometry" />
        </mxCell>
        <mxCell id="D3r7Wt1z7NvDzZLaiaD2-6" value="&lt;font style=&quot;color: rgb(255, 153, 51);&quot;&gt;storage&lt;/font&gt;" style="text;html=1;align=center;verticalAlign=middle;whiteSpace=wrap;rounded=0;" vertex="1" parent="1">
          <mxGeometry x="590" y="290" width="60" height="30" as="geometry" />
        </mxCell>
        <mxCell id="D3r7Wt1z7NvDzZLaiaD2-7" value="&lt;font style=&quot;color: rgb(255, 153, 51);&quot;&gt;memory&lt;/font&gt;" style="text;html=1;align=center;verticalAlign=middle;whiteSpace=wrap;rounded=0;" vertex="1" parent="1">
          <mxGeometry x="320" y="320" width="50" height="20" as="geometry" />
        </mxCell>
        <mxCell id="D3r7Wt1z7NvDzZLaiaD2-8" value="session_state" style="rounded=1;whiteSpace=wrap;html=1;" vertex="1" parent="1">
          <mxGeometry x="335" y="420" width="85" height="40" as="geometry" />
        </mxCell>
        <mxCell id="D3r7Wt1z7NvDzZLaiaD2-9" value="context" style="rounded=1;whiteSpace=wrap;html=1;" vertex="1" parent="1">
          <mxGeometry x="342.5" y="479" width="85" height="40" as="geometry" />
        </mxCell>
        <mxCell id="D3r7Wt1z7NvDzZLaiaD2-11" value="&lt;font style=&quot;color: rgb(255, 153, 51);&quot;&gt;knowledge&lt;/font&gt;" style="text;html=1;align=center;verticalAlign=middle;whiteSpace=wrap;rounded=0;" vertex="1" parent="1">
          <mxGeometry x="427.5" y="290" width="60" height="30" as="geometry" />
        </mxCell>
        <mxCell id="D3r7Wt1z7NvDzZLaiaD2-14" style="edgeStyle=orthogonalEdgeStyle;rounded=0;orthogonalLoop=1;jettySize=auto;html=1;entryX=0.634;entryY=-0.005;entryDx=0;entryDy=0;entryPerimeter=0;" edge="1" parent="1" source="BSQEsAMGl3usn15K0dEv-4" target="BSQEsAMGl3usn15K0dEv-7">
          <mxGeometry relative="1" as="geometry">
            <Array as="points">
              <mxPoint x="125" y="230" />
              <mxPoint x="533" y="230" />
            </Array>
          </mxGeometry>
        </mxCell>
        <mxCell id="D3r7Wt1z7NvDzZLaiaD2-16" value="AG-UI-Client" style="rounded=1;whiteSpace=wrap;html=1;" vertex="1" parent="1">
          <mxGeometry x="307.5" y="60" width="120" height="60" as="geometry" />
        </mxCell>
        <mxCell id="D3r7Wt1z7NvDzZLaiaD2-19" value="&lt;div style=&quot;color: rgb(216, 222, 233); font-family: Consolas, &amp;quot;Courier New&amp;quot;, monospace; font-size: 14px; line-height: 19px; white-space: pre;&quot;&gt;&lt;span style=&quot;color: rgb(235, 200, 141);&quot;&gt;EventEncoder&lt;/span&gt;&lt;/div&gt;" style="text;html=1;align=center;verticalAlign=middle;whiteSpace=wrap;rounded=0;" vertex="1" parent="1">
          <mxGeometry x="147.5" y="190" width="60" height="30" as="geometry" />
        </mxCell>
      </root>
    </mxGraphModel>
  </diagram>
</mxfile>
